<?xml version="1.0" standalone="no"?>
<!DOCTYPE svg PUBLIC "-//W3C//DTD SVG 20010904//EN"
 "http://www.w3.org/TR/2001/REC-SVG-20010904/DTD/svg10.dtd">
<svg version="1.0" xmlns="http://www.w3.org/2000/svg"
 width="170.000000pt" height="170.000000pt" viewBox="0 0 170.000000 170.000000"
 preserveAspectRatio="xMidYMid meet">

<g transform="translate(0.000000,170.000000) scale(0.100000,-0.100000)"
fill="#000000" stroke="none">
<path d="M1046 1243 c-4 -4 -6 -82 -6 -174 l2 -167 94 -7 94 -7 0 -174 0 -174
40 0 40 0 3 178 2 177 3 -222 2 -223 40 0 40 0 0 225 0 225 -92 2 c-51 1 -111
3 -133 3 l-40 2 -3 171 -2 172 -39 0 c-21 0 -41 -3 -45 -7z"/>
<path d="M338 1233 c7 -3 16 -2 19 1 4 3 -2 6 -13 5 -11 0 -14 -3 -6 -6z"/>
<path d="M374 1080 c0 -91 2 -128 3 -82 2 45 2 119 0 165 -1 45 -3 8 -3 -83z"/>
<path d="M330 1070 c0 -127 2 -150 15 -150 13 0 15 23 15 150 0 127 -2 150
-15 150 -13 0 -15 -23 -15 -150z"/>
<path d="M980 1040 c0 -100 3 -120 15 -120 13 0 15 20 15 120 0 100 -2 120
-15 120 -12 0 -15 -20 -15 -120z"/>
<path d="M1024 1040 c0 -69 1 -97 3 -62 2 34 2 90 0 125 -2 34 -3 6 -3 -63z"/>
<path d="M487 1103 c-4 -3 -7 -51 -7 -105 l0 -98 45 0 45 0 0 105 0 105 -38 0
c-21 0 -42 -3 -45 -7z"/>
<path d="M860 1001 l0 -111 45 0 46 0 -3 108 -3 107 -42 3 -43 3 0 -110z"/>
<path d="M964 1015 c0 -55 1 -76 3 -47 2 29 2 74 0 100 -2 26 -3 2 -3 -53z"/>
<path d="M313 980 c0 -36 2 -50 4 -32 2 17 2 47 0 65 -2 17 -4 3 -4 -33z"/>
<path d="M328 903 c12 -2 30 -2 40 0 9 3 -1 5 -23 4 -22 0 -30 -2 -17 -4z"/>
<path d="M418 903 c12 -2 30 -2 40 0 9 3 -1 5 -23 4 -22 0 -30 -2 -17 -4z"/>
<path d="M978 903 c12 -2 30 -2 40 0 9 3 -1 5 -23 4 -22 0 -30 -2 -17 -4z"/>
<path d="M628 893 c29 -2 50 -8 47 -13 -3 -5 -2 -103 1 -219 l7 -211 39 0 38
0 0 219 0 220 48 4 c26 2 -16 3 -93 3 -77 0 -116 -1 -87 -3z"/>
<path d="M1428 893 c12 -2 32 -2 45 0 12 2 2 4 -23 4 -25 0 -35 -2 -22 -4z"/>
<path d="M780 711 l0 -168 25 5 c21 4 25 10 25 38 0 18 5 36 10 39 6 4 10 58
10 131 l0 124 -35 0 -35 0 0 -169z"/>
<path d="M1142 855 c0 -16 2 -22 5 -12 2 9 2 23 0 30 -3 6 -5 -1 -5 -18z"/>
<path d="M1160 770 l0 -110 25 0 25 0 0 110 0 110 -25 0 -25 0 0 -110z"/>
<path d="M1173 643 c9 -2 23 -2 30 0 6 3 -1 5 -18 5 -16 0 -22 -2 -12 -5z"/>
</g>
</svg>
